<svg xmlns="http://www.w3.org/2000/svg" width="400" height="400" viewBox="0 0 400 400">
  <defs>
    <linearGradient id="bg" x1="0" y1="0" x2="1" y2="1">
      <stop offset="0%" stop-color="#1a0808"/>
      <stop offset="100%" stop-color="#000000"/>
    </linearGradient>
    <linearGradient id="accent" x1="0" y1="0" x2="0" y2="1">
      <stop offset="0%" stop-color="#8b0000" stop-opacity="0.6"/>
      <stop offset="100%" stop-color="#8b0000" stop-opacity="0"/>
    </linearGradient>
  </defs>
  <rect width="400" height="400" fill="url(#bg)"/>
  <rect x="0" y="0" width="400" height="3" fill="#ff4444" opacity="0.4"/>
  <rect x="0" y="397" width="400" height="3" fill="#ff4444" opacity="0.2"/>
  <rect width="400" height="200" fill="url(#accent)"/>
  <!-- Grid pattern -->
  <g opacity="0.04" stroke="#ff4444" stroke-width="0.5">
    <line x1="0" y1="0" x2="0" y2="400"/>
    <line x1="20" y1="0" x2="20" y2="400"/>
    <line x1="40" y1="0" x2="40" y2="400"/>
    <line x1="60" y1="0" x2="60" y2="400"/>
    <line x1="80" y1="0" x2="80" y2="400"/>
    <line x1="100" y1="0" x2="100" y2="400"/>
    <line x1="120" y1="0" x2="120" y2="400"/>
    <line x1="140" y1="0" x2="140" y2="400"/>
    <line x1="160" y1="0" x2="160" y2="400"/>
    <line x1="180" y1="0" x2="180" y2="400"/>
    <line x1="200" y1="0" x2="200" y2="400"/>
    <line x1="220" y1="0" x2="220" y2="400"/>
    <line x1="240" y1="0" x2="240" y2="400"/>
    <line x1="260" y1="0" x2="260" y2="400"/>
    <line x1="280" y1="0" x2="280" y2="400"/>
    <line x1="300" y1="0" x2="300" y2="400"/>
    <line x1="320" y1="0" x2="320" y2="400"/>
    <line x1="340" y1="0" x2="340" y2="400"/>
    <line x1="360" y1="0" x2="360" y2="400"/>
    <line x1="380" y1="0" x2="380" y2="400"/>
    <line x1="0" y1="0" x2="400" y2="0"/>
    <line x1="0" y1="20" x2="400" y2="20"/>
    <line x1="0" y1="40" x2="400" y2="40"/>
    <line x1="0" y1="60" x2="400" y2="60"/>
    <line x1="0" y1="80" x2="400" y2="80"/>
    <line x1="0" y1="100" x2="400" y2="100"/>
    <line x1="0" y1="120" x2="400" y2="120"/>
    <line x1="0" y1="140" x2="400" y2="140"/>
    <line x1="0" y1="160" x2="400" y2="160"/>
    <line x1="0" y1="180" x2="400" y2="180"/>
    <line x1="0" y1="200" x2="400" y2="200"/>
    <line x1="0" y1="220" x2="400" y2="220"/>
    <line x1="0" y1="240" x2="400" y2="240"/>
    <line x1="0" y1="260" x2="400" y2="260"/>
    <line x1="0" y1="280" x2="400" y2="280"/>
    <line x1="0" y1="300" x2="400" y2="300"/>
    <line x1="0" y1="320" x2="400" y2="320"/>
    <line x1="0" y1="340" x2="400" y2="340"/>
    <line x1="0" y1="360" x2="400" y2="360"/>
    <line x1="0" y1="380" x2="400" y2="380"/>
  </g>
  <!-- Initials -->
  <text x="200" y="200" font-family="'Courier New',monospace" font-size="120" font-weight="900"
    fill="#ff4444" opacity="0.15" text-anchor="middle" dominant-baseline="central"
    letter-spacing="15">GW</text>
  <!-- Silhouette icon based on type -->
  
  <circle cx="200" cy="145" r="45" fill="none" stroke="#ff4444" stroke-width="1.5" opacity="0.3"/>
  <path d="M200 195 C160 195 130 215 125 250 L275 250 C270 215 240 195 200 195Z" fill="none" stroke="#ff4444" stroke-width="1.5" opacity="0.3"/>
  
  <!-- Name -->
  <text x="200" y="310" font-family="'Helvetica Neue',Arial,sans-serif" font-size="14" font-weight="700"
    fill="#ff4444" opacity="0.6" text-anchor="middle" letter-spacing="2"
    text-transform="uppercase">Gary Wang</text>
  <!-- Type label -->
  <text x="200" y="340" font-family="'Courier New',monospace" font-size="9"
    fill="#994444" opacity="0.5" text-anchor="middle" letter-spacing="4"
    text-transform="uppercase">INDIVIDUAL</text>
  <!-- Corner accents -->
  <line x1="0" y1="15" x2="15" y2="0" stroke="#ff4444" stroke-width="0.5" opacity="0.2"/>
  <line x1="385" y1="0" x2="400" y2="15" stroke="#ff4444" stroke-width="0.5" opacity="0.2"/>
  <line x1="0" y1="385" x2="15" y2="400" stroke="#ff4444" stroke-width="0.5" opacity="0.2"/>
  <line x1="385" y1="400" x2="400" y2="385" stroke="#ff4444" stroke-width="0.5" opacity="0.2"/>
</svg>